<mxfile host="app.diagrams.net" modified="2024-04-29T14:19:11.463Z" agent="Mozilla/5.0 (X11; Ubuntu; Linux x86_64; rv:125.0) Gecko/20100101 Firefox/125.0" version="24.3.1" etag="2F5g9ZYZckm9D3lWjrY_" type="github">
  <diagram name="PÃ¡gina-1" id="hZo_IGD91vRhT2ra_qea">
    <mxGraphModel>
      <root>
        <mxCell id="0" />
        <mxCell id="1" parent="0" />
      </root>
    </mxGraphModel>
  </diagram>
</mxfile>
